<svg width="1021" height="326" viewBox="0 0 1021 326" fill="none" xmlns="http://www.w3.org/2000/svg">
<g clip-path="url(#clip0_850_243596)">
<path d="M238.991 244V105.96H267.271V122.2H271.751C274.364 117.347 278.564 113.053 284.351 109.32C290.138 105.587 297.978 103.72 307.871 103.72C318.138 103.72 326.351 105.867 332.511 110.16C338.858 114.267 343.618 119.587 346.791 126.12H351.271C354.444 119.773 359.018 114.453 364.991 110.16C371.151 105.867 379.831 103.72 391.031 103.72C399.991 103.72 407.924 105.587 414.831 109.32C421.738 112.867 427.244 118.28 431.351 125.56C435.458 132.653 437.511 141.52 437.511 152.16V244H408.671V154.4C408.671 146 406.338 139.56 401.671 135.08C397.191 130.413 390.751 128.08 382.351 128.08C373.391 128.08 366.204 130.973 360.791 136.76C355.378 142.547 352.671 150.853 352.671 161.68V244H323.831V154.4C323.831 146 321.498 139.56 316.831 135.08C312.351 130.413 305.911 128.08 297.511 128.08C288.551 128.08 281.364 130.973 275.951 136.76C270.538 142.547 267.831 150.853 267.831 161.68V244H238.991ZM542.349 247.92C528.349 247.92 516.122 245.027 505.669 239.24C495.216 233.267 487.002 224.96 481.029 214.32C475.242 203.493 472.349 190.987 472.349 176.8V173.44C472.349 159.067 475.242 146.56 481.029 135.92C486.816 125.093 494.842 116.787 505.109 111C515.562 105.027 527.602 102.04 541.229 102.04C554.482 102.04 566.056 105.027 575.949 111C586.029 116.787 593.869 124.907 599.469 135.36C605.069 145.813 607.869 158.04 607.869 172.04V182.96H501.749C502.122 195.093 506.136 204.8 513.789 212.08C521.629 219.173 531.336 222.72 542.909 222.72C553.736 222.72 561.856 220.293 567.269 215.44C572.869 210.587 577.162 204.987 580.149 198.64L603.949 210.96C601.336 216.187 597.509 221.693 592.469 227.48C587.616 233.267 581.176 238.12 573.149 242.04C565.122 245.96 554.856 247.92 542.349 247.92ZM502.029 160.84H578.469C577.722 150.387 573.989 142.267 567.269 136.48C560.549 130.507 551.776 127.52 540.949 127.52C530.122 127.52 521.256 130.507 514.349 136.48C507.629 142.267 503.522 150.387 502.029 160.84ZM656.064 244L632.544 105.96H661.384L678.744 224.68H683.224L707.304 105.96H754.064L777.864 224.68H782.344L799.704 105.96H828.544L805.024 244H756.584L732.784 125.56H728.304L704.504 244H656.064ZM914.502 244C906.102 244 899.382 241.48 894.342 236.44C889.489 231.4 887.062 224.68 887.062 216.28V130.32H848.982V105.96H887.062V60.32H915.902V105.96H957.062V130.32H915.902V211.24C915.902 216.84 918.515 219.64 923.742 219.64H952.582V244H914.502Z" fill="white"/>
<g clip-path="url(#clip1_850_243596)">
<path d="M107.46 117.674L64.1719 129.775L64.3294 184.156L107.658 172.045L107.46 117.674Z" stroke="#E6E6E6" stroke-width="1.7482" stroke-linejoin="round"/>
<path d="M107.91 172.156L64.6211 184.257L64.7786 238.638L108.107 226.528L107.91 172.156Z" stroke="#E2E2E2" stroke-width="1.7482" stroke-linejoin="round"/>
<path d="M64.6152 184.636L107.963 172.509L149.009 193.402L105.669 205.531L64.6152 184.636Z" fill="#190B14" stroke="#E2E2E2" stroke-width="1.7482" stroke-linejoin="round"/>
<path d="M148.892 193.065L105.604 205.166L105.761 259.548L149.09 247.437L148.892 193.065Z" fill="#190B14" stroke="#E2E2E2" stroke-width="1.7482" stroke-linejoin="round"/>
<path d="M64.847 238.794L64.6523 184.666L105.277 205.463L105.477 259.587L64.847 238.794Z" fill="#71335C" stroke="#E2E2E2" stroke-width="1.7482" stroke-linejoin="round"/>
<path d="M148.357 138.586L105.068 150.687L105.226 205.068L148.555 192.957L148.357 138.586Z" stroke="#E2E2E2" stroke-width="1.7482" stroke-linejoin="round"/>
<path d="M105.062 151.066L148.41 138.939L189.456 159.833L146.116 171.962L105.062 151.066Z" fill="#135562" stroke="#E2E2E2" stroke-width="1.7482" stroke-linejoin="round"/>
<path d="M189.339 159.495L146.051 171.596L146.208 225.977L189.537 213.866L189.339 159.495Z" fill="#135562" stroke="#E2E2E2" stroke-width="1.7482" stroke-linejoin="round"/>
<path d="M105.294 205.225L105.1 151.097L145.724 171.893L145.924 226.018L105.294 205.225Z" fill="#218EA4" stroke="#E2E2E2" stroke-width="1.7482" stroke-linejoin="round"/>
<path d="M107.46 63.7422L64.1719 75.843L64.3294 130.224L107.658 118.114L107.46 63.7422Z" stroke="#E2E2E2" stroke-width="1.7482" stroke-linejoin="round"/>
<path d="M64.166 76.2226L107.513 64.0957L148.56 84.9888L105.219 97.118L64.166 76.2226Z" fill="#B45427" stroke="#E2E2E2" stroke-width="1.7482" stroke-linejoin="round"/>
<path d="M148.441 84.6514L105.152 96.7522L105.31 151.133L148.639 139.023L148.441 84.6514Z" fill="#B45427" stroke="#E2E2E2" stroke-width="1.7482" stroke-linejoin="round"/>
<path d="M64.3977 130.38L64.2031 76.252L104.828 97.0487L105.028 151.173L64.3977 130.38Z" fill="#ED6E33" stroke="#E2E2E2" stroke-width="1.7482" stroke-linejoin="round"/>
</g>
</g>
<defs>
<clipPath id="clip0_850_243596">
<rect width="1021" height="326" fill="white"/>
</clipPath>
<clipPath id="clip1_850_243596">
<rect width="279.712" height="279.712" fill="white" transform="translate(-18 12.9805)"/>
</clipPath>
</defs>
</svg>
